<svg id="Comercio" xmlns="http://www.w3.org/2000/svg" width="17.782" height="18" viewBox="0 0 17.782 18">
  <path id="Trazado_1453" data-name="Trazado 1453" d="M18.914,188.3v-.012c0-.023,0-.047-.006-.07a.376.376,0,0,0-.007-.076v-.009l-1.489-7.528a.75.75,0,0,0-.811-.6.476.476,0,0,0-.074-.008h-13a.539.539,0,0,0-.077.008.75.75,0,0,0-.811.6l-1.489,7.528v.006c0,.025,0,.05-.007.076s-.006.049-.008.073v.014a3.092,3.092,0,0,0,.779,2.038v5.316A2.347,2.347,0,0,0,4.254,198h11.5a2.343,2.343,0,0,0,2.343-2.343v-5.281a3.091,3.091,0,0,0,.811-2.072m-5.969-.765a.751.751,0,0,0-.752.751,1.606,1.606,0,0,1-1.6,1.6H9.458a1.607,1.607,0,0,1-1.6-1.6.751.751,0,1,0-1.5,0,1.688,1.688,0,0,1-1.684,1.6H4.24a1.6,1.6,0,0,1-1.6-1.558L3.992,181.5H6.353v2.467a.751.751,0,1,0,1.5,0V181.5h4.337v2.467a.751.751,0,1,0,1.5,0V181.5h2.363l1.352,6.833a1.6,1.6,0,0,1-1.6,1.555h-.426a1.688,1.688,0,0,1-1.688-1.6.751.751,0,0,0-.751-.751h0m2.814,8.963H4.258a.843.843,0,0,1-.842-.842V191.28a3.075,3.075,0,0,0,.824.114h.427a3.224,3.224,0,0,0,2.416-1.109,3.1,3.1,0,0,0,2.376,1.109h1.13a3.1,3.1,0,0,0,2.375-1.109,3.226,3.226,0,0,0,2.417,1.109h.426a3.086,3.086,0,0,0,.791-.105v4.371a.842.842,0,0,1-.84.84" transform="translate(-1.132 -180)" fill="#0f4fcc"/>
</svg>
