<svg xmlns="http://www.w3.org/2000/svg" width="19" height="18.827" viewBox="0 0 19 18.827">
  <g id="Parámetros" transform="translate(0.5 0.509)">
    <path id="Unión_75" data-name="Unión 75" d="M2.788,15.638H.767a.816.816,0,0,1,0-1.629H2.788a2.912,2.912,0,0,1,1.948-2.063,2.8,2.8,0,0,1,3.478,2.063H17.23a.816.816,0,0,1,0,1.629H8.214a2.907,2.907,0,0,1-1.949,2.068,2.672,2.672,0,0,1-.764.112A2.851,2.851,0,0,1,2.788,15.638Zm1.427-.814A1.328,1.328,0,0,0,5.5,16.189a1.368,1.368,0,0,0,0-2.73A1.328,1.328,0,0,0,4.215,14.824ZM9.8,9.763H.768a.8.8,0,0,1,0-1.608H9.8A2.887,2.887,0,0,1,11.75,6.112a2.8,2.8,0,0,1,3.477,2.043h2a.8.8,0,0,1,0,1.608h-2a2.887,2.887,0,0,1-1.948,2.043,2.708,2.708,0,0,1-.766.111A2.84,2.84,0,0,1,9.8,9.763Zm1.418-.812v.016a1.287,1.287,0,1,0,2.572,0V8.956a1.32,1.32,0,0,0-1.21-1.272l-.079,0A1.313,1.313,0,0,0,11.219,8.951ZM2.75,3.868H.768A.8.8,0,0,1,0,3.041a.8.8,0,0,1,.769-.829H2.754A2.944,2.944,0,0,1,4.7.116a2.8,2.8,0,0,1,3.48,2.1H17.23A.8.8,0,0,1,18,3.041a.8.8,0,0,1-.769.827H8.173a2.938,2.938,0,0,1-1.942,2.1,2.626,2.626,0,0,1-.77.116A2.861,2.861,0,0,1,2.75,3.868Zm1.425-.827A1.341,1.341,0,0,0,5.463,4.428,1.341,1.341,0,0,0,6.749,3.041v0A1.339,1.339,0,0,0,5.461,1.651,1.34,1.34,0,0,0,4.176,3.041Z" transform="translate(0 0)" fill="#0f4fcc" stroke="rgba(0,0,0,0)" stroke-width="1"/>
  </g>
</svg>
