<svg id="Home" xmlns="http://www.w3.org/2000/svg" width="16.514" height="18" viewBox="0 0 16.514 18">
  <path id="Trazado_1456" data-name="Trazado 1456" d="M18.022,7.135,10.61.211a.769.769,0,0,0-1.047,0l-7.491,7a.778.778,0,0,0-.064.09.76.76,0,0,0-.05.07.733.733,0,0,0-.1.238v.014a.721.721,0,0,0-.014.206v7.785A2.4,2.4,0,0,0,4.235,18H15.969a2.392,2.392,0,0,0,2.39-2.39V7.77a.764.764,0,0,0-.337-.631m-5.7,9.332H7.877V12.649a2.224,2.224,0,1,1,4.449,0v3.824Zm4.5-.857a.859.859,0,0,1-.857.857h-2.11V12.649a3.758,3.758,0,1,0-7.515-.116q0,.058,0,.116v3.822H4.235a.86.86,0,0,1-.86-.858V8.09l6.711-6.269,6.739,6.294Z" transform="translate(-1.845 -0.005)" fill="#0f4fcc"/>
</svg>
